<svg id="Twotone" height="512" viewBox="0 0 64 64" width="512" xmlns="http://www.w3.org/2000/svg"><path d="m61 14.44a2.37 2.37 0 0 0 -.32-.15 2 2 0 0 0 -2.56 1.2l-.68 1.88-9.58 26.31-.17 6.32 3.93-5 9.38-25.73z" fill="#cff09e"/><path d="m51.53 14.21h4v28h-4z" fill="#a8dba8" transform="matrix(.94 .342 -.342 .94 12.88 -16.61)"/><path d="m46.69 47 .17-6.32 3.76 1.37z" fill="#79bd9a"/><path d="m59 11.17a2 2 0 0 1 2 2v2a0 0 0 0 1 0 0h-4a0 0 0 0 1 0 0v-2a2 2 0 0 1 2-2z" fill="#79bd9a" transform="matrix(.94 .342 -.342 .94 8.06 -19.38)"/><path d="m32 18h6v6h-6z" fill="#a8dba8"/><path d="m32 29h6v6h-6z" fill="#a8dba8"/><path d="m32 41h6v6h-6z" fill="#a8dba8"/><path d="m32 7h17v4h-17z" fill="#a8dba8"/><path d="m28 37v-34h-9v58h42v-8h-17a16 16 0 0 1 -16-16z" fill="#cff09e"/><path d="m7 50h20a4 4 0 0 1 4 4v2a0 0 0 0 1 0 0h-28a0 0 0 0 1 0 0v-2a4 4 0 0 1 4-4z" fill="#a8dba8"/><rect fill="#a8dba8" height="4" rx="2" width="22" x="6" y="46"/><path d="m23 28h-12l-2 18h16z" fill="#a8dba8"/><rect fill="#a8dba8" height="4" rx="2" width="16" x="9" y="24"/><path d="m23 10v4h-4v-4h-4v4h-4v-4h-4v8l4 6h12l4-6v-8z" fill="#a8dba8"/><g fill="#3b8686"><path d="m61 2h-42a1 1 0 0 0 -1 1v6h-3a1 1 0 0 0 -1 1v3h-2v-3a1 1 0 0 0 -1-1h-4a1 1 0 0 0 -1 1v8a1 1 0 0 0 .17.55l3.26 4.9a3 3 0 0 0 .48 5.34l-1.8 16.21h-.11a3 3 0 0 0 -3 3 2.91 2.91 0 0 0 .32 1.31 5 5 0 0 0 -3.32 4.69v2a1 1 0 0 0 1 1h15v4a1 1 0 0 0 1 1h42a1 1 0 0 0 1-1v-58a1 1 0 0 0 -1-1zm-12 40.51-1.23 1.49v-1.94h.09zm1-1.75-1.88-.68 8.88-24.43 1.88.68zm7.7-27 .34-.94a1 1 0 0 1 1.28-.6 1 1 0 0 1 .57.52 1 1 0 0 1 0 .76l-.34.94zm-49.7-2.76h2v3a1 1 0 0 0 1 1h4a1 1 0 0 0 1-1v-3h2v3a1 1 0 0 0 1 1h4a1 1 0 0 0 1-1v-3h2v6.7l-3.54 5.3h-10.92l-3.54-5.3zm15 16h-12a1 1 0 0 1 0-2h12a1 1 0 0 1 0 2zm-11.1 2h10.2l1.78 16h-13.76zm-3.9 18h18a1 1 0 0 1 0 2h-18a1 1 0 0 1 0-2zm-4 7a3 3 0 0 1 3-3h20a3 3 0 0 1 3 3v1h-26zm16 6v-3h11a1 1 0 0 0 1-1v-2a5 5 0 0 0 -3.32-4.69 2.91 2.91 0 0 0 .32-1.31 3 3 0 0 0 -3-3h-.11l-1.8-16.21a3 3 0 0 0 .48-5.34l3.26-4.9a1 1 0 0 0 .17-.55v-8a1 1 0 0 0 -1-1h-4a1 1 0 0 0 -1 1v3h-2v-9h40v6.35a3 3 0 0 0 -3.82 1.8l-.68 1.85-7.29 20a1.55 1.55 0 0 0 -.21 0h-6a1 1 0 0 0 0 2h5.5l-1.58 4.34a.72.72 0 0 0 -.06.29v1.35h-3.86a1 1 0 0 0 0 2h3.77l-.06 2h-3.71a1 1 0 0 0 0 2h11a1 1 0 0 0 0-2h-4.24l2.64-3.33a.94.94 0 0 0 .14-.26l8.46-23.2v40.81z"/><path d="m32 25h6a1 1 0 0 0 1-1v-6a1 1 0 0 0 -1-1h-6a1 1 0 0 0 -1 1v6a1 1 0 0 0 1 1zm1-6h4v4h-4z"/><path d="m32 36h6a1 1 0 0 0 1-1v-6a1 1 0 0 0 -1-1h-6a1 1 0 0 0 -1 1v6a1 1 0 0 0 1 1zm1-6h4v4h-4z"/><path d="m39 47a1 1 0 0 0 -1-1h-6a1 1 0 0 0 0 2h6a1 1 0 0 0 1-1z"/><path d="m49 23h-7a1 1 0 0 0 0 2h7a1 1 0 0 0 0-2z"/><path d="m34.29 44.71a1 1 0 0 0 1.42 0l5-5a1 1 0 0 0 -1.42-1.42l-4.29 4.3-2.29-2.3a1 1 0 0 0 -1.42 1.42z"/><path d="m44 30h-2a1 1 0 0 0 0 2h2a1 1 0 0 0 0-2z"/><path d="m32 12h17a1 1 0 0 0 1-1v-4a1 1 0 0 0 -1-1h-17a1 1 0 0 0 -1 1v4a1 1 0 0 0 1 1zm1-4h15v2h-15z"/><path d="m49 52h-11a1 1 0 0 0 0 2h11a1 1 0 0 0 0-2z"/><path d="m44 56h-9a1 1 0 0 0 0 2h9a1 1 0 0 0 0-2z"/></g></svg>